<?xml version="1.0" encoding="UTF-8" standalone="no"?>
<svg
   width="34"
   height="34"
   viewBox="0 0 34.000002 34.00003"
   version="1.1"
   id="svg5"
   xmlns:xlink="http://www.w3.org/1999/xlink"
   xmlns="http://www.w3.org/2000/svg"
   xmlns:svg="http://www.w3.org/2000/svg">
  <defs
     id="defs2">
    <linearGradient
       id="linearGradient4959">
      <stop
         id="stop4961"
         style="stop-color:#000000;stop-opacity:1"
         offset="0" />
      <stop
         id="stop4963"
         style="stop-color:#ffffff;stop-opacity:1"
         offset="1" />
    </linearGradient>
    <linearGradient
       x1="300"
       y1="96.734383"
       x2="300"
       y2="505.0625"
       id="linearGradient4965"
       xlink:href="#linearGradient4959"
       gradientUnits="userSpaceOnUse" />
    <linearGradient
       x1="300.00049"
       y1="583.62787"
       x2="300.00049"
       y2="16.369165"
       id="linearGradient4973"
       xlink:href="#linearGradient4959"
       gradientUnits="userSpaceOnUse" />
  </defs>
  <g
     id="layer2"
     style="display:inline;opacity:1;stroke-width:17.6769"
     transform="scale(0.05666777,0.05647485)">
    <path
       d="m 134.68211,182.48589 81.88809,237.17437 h 40.73156 l 42.67415,-116.88254 40.61015,116.88254 h 44.49519 L 467.03011,182.48589 H 403.35279 L 364.50305,300.99891 323.28587,182.48589 H 299.97591 280.85454 L 239.63737,300.99891 200.42326,182.48589 Z"
       id="path3982-4"
       style="display:inline;fill:#ffffff;fill-opacity:1;stroke:none;stroke-width:30.882" />
    <path
       id="path3431"
       style="display:inline;fill:#fadb1e;fill-opacity:1;stroke:none;stroke-width:17.6769px;stroke-linecap:butt;stroke-linejoin:miter;stroke-opacity:1"
       d="m 300.41828,0 a 299.99435,300.02834 0 0 0 -40.56055,2.87891 299.99435,300.02834 0 0 0 -39.80078,8.33789 299.99435,300.02834 0 0 0 -38.30664,13.64453 299.99435,300.02834 0 0 0 -36.10937,18.70117 299.99435,300.02834 0 0 0 -33.25,23.41211 l 57.17187,67.47266 a 211.49707,212.33465 0 0 1 29.44336,-19.80664 211.49707,212.33465 0 0 1 32.32422,-14.5918 211.49707,212.33465 0 0 1 34.29883,-8.96875 211.49707,212.33465 0 0 1 35.30664,-3.09375 211.49707,212.33465 0 0 1 34.64844,2.89063 211.49707,212.33465 0 0 1 33.70898,8.54883 211.49707,212.33465 0 0 1 31.85742,13.97851 211.49707,212.33465 0 0 1 29.14453,19.0293 L 487.56086,65.62891 A 299.99435,300.02834 0 0 0 454.37922,42.59571 299.99435,300.02834 0 0 0 418.40266,24.22852 299.99435,300.02834 0 0 0 380.28547,10.86133 299.99435,300.02834 0 0 0 340.71906,2.73633 299.99435,300.02834 0 0 0 300.41828,0 Z" />
    <path
       id="path4109"
       style="display:inline;fill:#ffffff;fill-opacity:1;stroke:none;stroke-width:17.6769px;stroke-linecap:butt;stroke-linejoin:miter;stroke-opacity:1"
       d="m 502.8321,81.01252 -57.25,66.7832 a 211.49707,212.33465 0 0 1 23.0488,25.6797 211.49707,212.33465 0 0 1 18.5938,29.0957 211.49707,212.33465 0 0 1 13.6445,31.7383 211.49707,212.33465 0 0 1 8.3359,33.541 211.49707,212.33465 0 0 1 2.8028,34.4531 211.49707,212.33465 0 0 1 -3.2129,36.8711 211.49707,212.33465 0 0 1 -9.543,35.7519 211.49707,212.33465 0 0 1 -15.5801,33.54301 211.49707,212.33465 0 0 1 -21.1445,30.3203 211.49707,212.33465 0 0 1 -26.0684,26.1699 211.49707,212.33465 0 0 1 -30.1992,21.2305 211.49707,212.33465 0 0 1 -33.4121,15.6426 211.49707,212.33465 0 0 1 -35.6113,9.5781 211.49707,212.33465 0 0 1 -36.7246,3.2266 211.49707,212.33465 0 0 1 -36.7266,-3.2266 211.49707,212.33465 0 0 1 -35.6094,-9.5781 211.49707,212.33465 0 0 1 -33.4121,-15.6426 211.49707,212.33465 0 0 1 -30.2012,-21.2285 211.49707,212.33465 0 0 1 -26.0683,-26.1719 211.49707,212.33465 0 0 1 -21.1445,-30.3183 211.49707,212.33465 0 0 1 -15.5821,-33.54501 211.49707,212.33465 0 0 1 -9.541,-35.7519 211.49707,212.33465 0 0 1 -3.2129,-36.8711 211.49707,212.33465 0 0 1 2.8711,-33.8027 211.49707,212.33465 0 0 1 8.1973,-32.9121 211.49707,212.33465 0 0 1 13.3144,-31.1797 211.49707,212.33465 0 0 1 18.0899,-28.6543 211.49707,212.33465 0 0 1 22.4043,-25.3965 L 96.3516,82.45192 a 299.99435,300.02834 0 0 0 -28.1816,29.8848 299.99435,300.02834 0 0 0 -23.836,33.4531 299.99435,300.02834 0 0 0 -19.0429,36.3965 299.99435,300.02834 0 0 0 -13.8926,38.6563 299.99435,300.02834 0 0 0 -8.4844,40.1933 299.99435,300.02834 0 0 0 -2.9141,40.9746 299.99435,300.02834 0 0 0 3.0528,42.6992 299.99435,300.02834 0 0 0 9.0996,41.8282 299.99435,300.02834 0 0 0 14.957,40.10931 299.99435,300.02834 0 0 0 20.5137,37.5704 299.99435,300.02834 0 0 0 25.6504,34.2695 299.99435,300.02834 0 0 0 30.2656,30.2695 299.99435,300.02834 0 0 0 34.2656,25.6524 299.99435,300.02834 0 0 0 37.5684,20.5156 299.99435,300.02834 0 0 0 40.1035,14.9609 299.99435,300.02834 0 0 0 41.8242,9.0977 299.99435,300.02834 0 0 0 42.6934,3.0547 299.99435,300.02834 0 0 0 42.6933,-3.0547 299.99435,300.02834 0 0 0 41.8243,-9.0977 299.99435,300.02834 0 0 0 40.1035,-14.9609 299.99435,300.02834 0 0 0 37.5664,-20.5156 299.99435,300.02834 0 0 0 34.2656,-25.6524 299.99435,300.02834 0 0 0 30.2656,-30.2695 299.99435,300.02834 0 0 0 25.6524,-34.2695 299.99435,300.02834 0 0 0 20.5117,-37.5704 299.99435,300.02834 0 0 0 14.959,-40.10931 299.99435,300.02834 0 0 0 9.0976,-41.8282 299.99435,300.02834 0 0 0 3.0547,-42.6992 299.99435,300.02834 0 0 0 -2.8613,-41.2773 299.99435,300.02834 0 0 0 -8.5098,-40.4903 299.99435,300.02834 0 0 0 -14.0019,-38.9355 299.99435,300.02834 0 0 0 -19.2227,-36.6387 299.99435,300.02834 0 0 0 -24.0801,-33.6445 299.99435,300.02834 0 0 0 -28.4804,-30.0117 z" />
  </g>
</svg>
